<mxfile host="app.diagrams.net" modified="2023-11-29T13:41:00.747Z" agent="Mozilla/5.0 (Windows NT 10.0; Win64; x64) AppleWebKit/537.36 (KHTML, like Gecko) Chrome/119.0.0.0 Safari/537.36" version="22.1.4" etag="sRbTRIR7YGUOmVZnMAPa" type="github">
  <diagram name="페이지-1" id="gYow8PhE_fEbP8qinIjs">
    <mxGraphModel>
      <root>
        <mxCell id="0" />
        <mxCell id="1" parent="0" />
      </root>
    </mxGraphModel>
  </diagram>
</mxfile>
